<svg width="175" height="173" viewBox="0 0 175 173" fill="none" xmlns="http://www.w3.org/2000/svg">
<path d="M13.0687 153.34L0.76875 146.165C1.58875 143.056 3.09208 140.297 5.27875 137.887C7.46542 135.478 10.0621 133.727 13.0687 132.635L13.0687 153.34ZM18.1938 159.029L5.89375 166.05C4.08292 164.205 2.64792 162.061 1.58875 159.617C0.529584 157.174 0 154.535 0 151.7C0 151.256 0.0259669 150.744 0.0779002 150.163C0.129834 149.582 0.189283 149.052 0.25625 148.574L18.1938 159.029ZM25.625 171.534C24.805 171.739 23.9679 171.902 23.1137 172.022C22.2596 172.142 21.3883 172.202 20.5 172.2C18.0742 172.2 15.785 171.807 13.6325 171.021C11.48 170.236 9.51542 169.125 7.73875 167.69L25.625 157.338V171.534ZM40.2313 157.184C39.4112 160.293 37.9079 163.061 35.7212 165.486C33.5346 167.912 30.9379 169.672 27.9312 170.765V150.111L40.2313 157.184ZM41 151.7C41 152.213 40.9658 152.734 40.8975 153.264C40.8292 153.795 40.7608 154.298 40.6925 154.775L22.8062 144.371L35.1063 137.35C36.9171 139.195 38.3521 141.34 39.4113 143.783C40.4704 146.227 41 148.866 41 151.7ZM33.2612 135.71L15.375 146.063L15.375 131.866C16.195 131.661 17.0321 131.499 17.8862 131.379C18.7404 131.258 19.6117 131.199 20.5 131.2C22.8917 131.2 25.1808 131.619 27.3675 132.457C29.5542 133.295 31.5187 134.379 33.2612 135.71Z" fill="#F38040"/>
<path d="M13.0687 87.7406L0.76875 80.5656C1.58875 77.4564 3.09208 74.6971 5.27875 72.2877C7.46542 69.8783 10.0621 68.1276 13.0687 67.0356L13.0687 87.7406ZM18.1938 93.4293L5.89375 100.451C4.08292 98.6056 2.64792 96.4613 1.58875 94.0177C0.529584 91.5741 0 88.9351 0 86.1006C0 85.6564 0.0259669 85.1439 0.0779002 84.5631C0.129834 83.9823 0.189283 83.4527 0.25625 82.9743L18.1938 93.4293ZM25.625 105.934C24.805 106.139 23.9679 106.302 23.1137 106.422C22.2596 106.542 21.3883 106.602 20.5 106.601C18.0742 106.601 15.785 106.208 13.6325 105.422C11.48 104.636 9.51542 103.526 7.73875 102.091L25.625 91.7381V105.934ZM40.2313 91.5843C39.4112 94.6935 37.9079 97.461 35.7212 99.8868C33.5346 102.313 30.9379 104.072 27.9312 105.166V84.5118L40.2313 91.5843ZM41 86.1006C41 86.6131 40.9658 87.1345 40.8975 87.6647C40.8292 88.195 40.7608 88.6986 40.6925 89.1756L22.8062 78.7718L35.1063 71.7506C36.9171 73.5956 38.3521 75.7399 39.4113 78.1835C40.4704 80.6271 41 83.2661 41 86.1006ZM33.2612 70.1106L15.375 80.4631L15.375 66.2669C16.195 66.0619 17.0321 65.8992 17.8862 65.779C18.7404 65.6587 19.6117 65.5992 20.5 65.6006C22.8917 65.6006 25.1808 66.0195 27.3675 66.8573C29.5542 67.695 31.5187 68.7795 33.2612 70.1106Z" fill="#2C6BE5"/>
<path d="M13.0687 22.14L0.76875 14.965C1.58875 11.8558 3.09208 9.09655 5.27875 6.68711C7.46542 4.27768 10.0621 2.52699 13.0687 1.43502L13.0687 22.14ZM18.1938 27.8287L5.89375 34.85C4.08292 33.005 2.64792 30.8607 1.58875 28.4171C0.529584 25.9735 0 23.3345 0 20.5C0 20.0558 0.0259669 19.5433 0.0779002 18.9625C0.129834 18.3817 0.189283 17.8521 0.25625 17.3738L18.1938 27.8287ZM25.625 40.3337C24.805 40.5387 23.9679 40.7014 23.1137 40.8216C22.2596 40.9419 21.3883 41.0013 20.5 41C18.0742 41 15.785 40.6071 13.6325 39.8212C11.48 39.0354 9.51542 37.925 7.73875 36.49L25.625 26.1375V40.3337ZM40.2313 25.9837C39.4112 29.0929 37.9079 31.8604 35.7212 34.2862C33.5346 36.7121 30.9379 38.4716 27.9312 39.565V18.9113L40.2313 25.9837ZM41 20.5C41 21.0125 40.9658 21.5339 40.8975 22.0641C40.8292 22.5944 40.7608 23.098 40.6925 23.575L22.8062 13.1713L35.1063 6.15002C36.9171 7.99501 38.3521 10.1393 39.4113 12.5829C40.4704 15.0265 41 17.6655 41 20.5ZM33.2612 4.51002L15.375 14.8625L15.375 0.666275C16.195 0.461277 17.0321 0.298641 17.8862 0.178375C18.7404 0.0581093 19.6117 -0.00134277 20.5 2.67029e-05C22.8917 2.67029e-05 25.1808 0.418911 27.3675 1.25668C29.5542 2.09444 31.5187 3.17889 33.2612 4.51002Z" fill="#2C6BE5"/>
<path d="M86.86 144.069L94.035 131.769C97.1442 132.589 99.9035 134.092 102.313 136.279C104.722 138.465 106.473 141.062 107.565 144.069H86.86ZM81.1713 149.194L74.15 136.894C75.995 135.083 78.1393 133.648 80.5829 132.589C83.0265 131.53 85.6655 131 88.5 131C88.9442 131 89.4567 131.026 90.0375 131.078C90.6183 131.13 91.1479 131.189 91.6262 131.256L81.1713 149.194ZM68.6663 156.625C68.4613 155.805 68.2986 154.968 68.1784 154.114C68.0581 153.26 67.9987 152.388 68 151.5C68 149.074 68.3929 146.785 69.1788 144.632C69.9646 142.48 71.075 140.515 72.51 138.739L82.8625 156.625H68.6663ZM83.0163 171.231C79.9071 170.411 77.1396 168.908 74.7138 166.721C72.2879 164.535 70.5284 161.938 69.435 158.931H90.0887L83.0163 171.231ZM88.5 172C87.9875 172 87.4661 171.966 86.9359 171.897C86.4056 171.829 85.902 171.761 85.425 171.693L95.8287 153.806L102.85 166.106C101.005 167.917 98.8607 169.352 96.4171 170.411C93.9735 171.47 91.3345 172 88.5 172ZM104.49 164.261L94.1375 146.375H108.334C108.539 147.195 108.701 148.032 108.822 148.886C108.942 149.74 109.001 150.612 109 151.5C109 153.892 108.581 156.181 107.743 158.368C106.906 160.554 105.821 162.519 104.49 164.261Z" fill="#2C6BE5"/>
<path d="M152.46 144.069L159.635 131.769C162.744 132.589 165.503 134.092 167.913 136.279C170.322 138.465 172.073 141.062 173.165 144.069H152.46ZM146.771 149.194L139.75 136.894C141.595 135.083 143.739 133.648 146.183 132.589C148.626 131.53 151.266 131 154.1 131C154.544 131 155.057 131.026 155.637 131.078C156.218 131.13 156.748 131.189 157.226 131.256L146.771 149.194ZM134.266 156.625C134.061 155.805 133.899 154.968 133.778 154.114C133.658 153.26 133.599 152.388 133.6 151.5C133.6 149.074 133.993 146.785 134.779 144.632C135.565 142.48 136.675 140.515 138.11 138.739L148.462 156.625H134.266ZM148.616 171.231C145.507 170.411 142.74 168.908 140.314 166.721C137.888 164.535 136.128 161.938 135.035 158.931H155.689L148.616 171.231ZM154.1 172C153.587 172 153.066 171.966 152.536 171.897C152.006 171.829 151.502 171.761 151.025 171.693L161.429 153.806L168.45 166.106C166.605 167.917 164.461 169.352 162.017 170.411C159.573 171.47 156.934 172 154.1 172ZM170.09 164.261L159.737 146.375H173.934C174.139 147.195 174.301 148.032 174.422 148.886C174.542 149.74 174.601 150.612 174.6 151.5C174.6 153.892 174.181 156.181 173.343 158.368C172.506 160.554 171.421 162.519 170.09 164.261Z" fill="#2C6BE5"/>
</svg>
