<svg width="25" height="105" viewBox="0 0 25 105" fill="none" xmlns="http://www.w3.org/2000/svg">
<path d="M7.96875 93.5L0.46875 89.125C0.96875 87.2292 1.88542 85.5467 3.21875 84.0775C4.55208 82.6083 6.13542 81.5408 7.96875 80.875L7.96875 93.5ZM11.0938 96.9687L3.59375 101.25C2.48958 100.125 1.61458 98.8175 0.96875 97.3275C0.322917 95.8375 0 94.2283 0 92.5C0 92.2292 0.0158335 91.9167 0.0475001 91.5625C0.0791668 91.2083 0.115417 90.8854 0.15625 90.5938L11.0938 96.9687ZM15.625 104.594C15.125 104.719 14.6146 104.818 14.0938 104.891C13.5729 104.965 13.0417 105.001 12.5 105C11.0208 105 9.625 104.76 8.3125 104.281C7 103.802 5.80208 103.125 4.71875 102.25L15.625 95.9375V104.594ZM24.5312 95.8437C24.0312 97.7396 23.1146 99.4271 21.7812 100.906C20.4479 102.385 18.8646 103.458 17.0312 104.125V91.5313L24.5312 95.8437ZM25 92.5C25 92.8125 24.9792 93.1304 24.9375 93.4537C24.8958 93.7771 24.8542 94.0842 24.8125 94.375L13.9062 88.0313L21.4062 83.75C22.5104 84.875 23.3854 86.1825 24.0312 87.6725C24.6771 89.1625 25 90.7717 25 92.5ZM20.2812 82.75L9.375 89.0625V80.4063C9.875 80.2813 10.3854 80.1821 10.9062 80.1088C11.4271 80.0354 11.9583 79.9992 12.5 80C13.9583 80 15.3542 80.2554 16.6875 80.7663C18.0208 81.2771 19.2188 81.9383 20.2812 82.75Z" fill="#2C6BE5"/>
<path d="M7.96875 53.5L0.46875 49.125C0.96875 47.2292 1.88542 45.5467 3.21875 44.0775C4.55208 42.6083 6.13542 41.5408 7.96875 40.875L7.96875 53.5ZM11.0938 56.9687L3.59375 61.25C2.48958 60.125 1.61458 58.8175 0.96875 57.3275C0.322917 55.8375 0 54.2283 0 52.5C0 52.2292 0.0158335 51.9167 0.0475001 51.5625C0.0791668 51.2083 0.115417 50.8854 0.15625 50.5938L11.0938 56.9687ZM15.625 64.5937C15.125 64.7187 14.6146 64.8179 14.0938 64.8912C13.5729 64.9646 13.0417 65.0008 12.5 65C11.0208 65 9.625 64.7604 8.3125 64.2812C7 63.8021 5.80208 63.125 4.71875 62.25L15.625 55.9375V64.5937ZM24.5312 55.8437C24.0312 57.7396 23.1146 59.4271 21.7812 60.9062C20.4479 62.3854 18.8646 63.4583 17.0312 64.125V51.5313L24.5312 55.8437ZM25 52.5C25 52.8125 24.9792 53.1304 24.9375 53.4537C24.8958 53.7771 24.8542 54.0842 24.8125 54.375L13.9062 48.0313L21.4062 43.75C22.5104 44.875 23.3854 46.1825 24.0312 47.6725C24.6771 49.1625 25 50.7717 25 52.5ZM20.2812 42.75L9.375 49.0625V40.4063C9.875 40.2813 10.3854 40.1821 10.9062 40.1088C11.4271 40.0354 11.9583 39.9992 12.5 40C13.9583 40 15.3542 40.2554 16.6875 40.7663C18.0208 41.2771 19.2188 41.9383 20.2812 42.75Z" fill="#F38040"/>
<path d="M7.96875 13.5L0.46875 9.125C0.96875 7.22917 1.88542 5.54667 3.21875 4.07751C4.55208 2.60834 6.13542 1.54085 7.96875 0.875013L7.96875 13.5ZM11.0938 16.9687L3.59375 21.25C2.48958 20.125 1.61458 18.8175 0.96875 17.3275C0.322917 15.8375 0 14.2283 0 12.5C0 12.2292 0.0158335 11.9167 0.0475001 11.5625C0.0791668 11.2083 0.115417 10.8854 0.15625 10.5938L11.0938 16.9687ZM15.625 24.5937C15.125 24.7187 14.6146 24.8179 14.0938 24.8912C13.5729 24.9646 13.0417 25.0008 12.5 25C11.0208 25 9.625 24.7604 8.3125 24.2812C7 23.8021 5.80208 23.125 4.71875 22.25L15.625 15.9375V24.5937ZM24.5312 15.8437C24.0312 17.7396 23.1146 19.4271 21.7812 20.9062C20.4479 22.3854 18.8646 23.4583 17.0312 24.125V11.5313L24.5312 15.8437ZM25 12.5C25 12.8125 24.9792 13.1304 24.9375 13.4537C24.8958 13.7771 24.8542 14.0842 24.8125 14.375L13.9062 8.03126L21.4062 3.75001C22.5104 4.87501 23.3854 6.18251 24.0312 7.6725C24.6771 9.1625 25 10.7717 25 12.5ZM20.2812 2.75001L9.375 9.0625V0.406265C9.875 0.281265 10.3854 0.182096 10.9062 0.108765C11.4271 0.0354309 11.9583 -0.000818253 12.5 1.52588e-05C13.9583 1.52588e-05 15.3542 0.255432 16.6875 0.766264C18.0208 1.2771 19.2188 1.93835 20.2812 2.75001Z" fill="#2C6BE5"/>
</svg>
