<svg width="173" height="175" viewBox="0 0 173 175" fill="none" xmlns="http://www.w3.org/2000/svg">
<path d="M153.34 161.531L146.165 173.831C143.056 173.011 140.296 171.508 137.887 169.321C135.478 167.134 133.727 164.538 132.635 161.531H153.34ZM159.029 156.406L166.05 168.706C164.205 170.517 162.061 171.952 159.617 173.011C157.173 174.07 154.534 174.6 151.7 174.6C151.256 174.6 150.743 174.574 150.162 174.522C149.582 174.47 149.052 174.41 148.574 174.343L159.029 156.406ZM171.534 148.975C171.739 149.795 171.901 150.632 172.022 151.486C172.142 152.34 172.201 153.211 172.2 154.1C172.2 156.525 171.807 158.815 171.021 160.967C170.235 163.12 169.125 165.084 167.69 166.861L157.337 148.975H171.534ZM157.184 134.368C160.293 135.188 163.06 136.692 165.486 138.878C167.912 141.065 169.672 143.662 170.765 146.668H150.111L157.184 134.368ZM151.7 133.6C152.212 133.6 152.734 133.634 153.264 133.702C153.794 133.77 154.298 133.839 154.775 133.907L144.371 151.793L137.35 139.493C139.195 137.683 141.339 136.248 143.783 135.188C146.226 134.129 148.865 133.6 151.7 133.6ZM135.71 141.338L146.062 159.225H131.866C131.661 158.405 131.499 157.568 131.378 156.713C131.258 155.859 131.199 154.988 131.2 154.1C131.2 151.708 131.619 149.419 132.457 147.232C133.294 145.045 134.379 143.081 135.71 141.338Z" fill="#F38040"/>
<path d="M87.7399 161.531L80.5649 173.831C77.4557 173.011 74.6964 171.508 72.287 169.321C69.8775 167.134 68.1268 164.538 67.0349 161.531H87.7399ZM93.4286 156.406L100.45 168.706C98.6048 170.517 96.4605 171.952 94.0169 173.011C91.5733 174.07 88.9343 174.6 86.0999 174.6C85.6557 174.6 85.1432 174.574 84.5624 174.522C83.9815 174.47 83.4519 174.41 82.9736 174.343L93.4286 156.406ZM105.934 148.975C106.139 149.795 106.301 150.632 106.421 151.486C106.542 152.34 106.601 153.211 106.6 154.1C106.6 156.525 106.207 158.815 105.421 160.967C104.635 163.12 103.525 165.084 102.09 166.861L91.7373 148.975H105.934ZM91.5836 134.368C94.6928 135.188 97.4603 136.692 99.8861 138.878C102.312 141.065 104.071 143.662 105.165 146.668H84.5111L91.5836 134.368ZM86.0999 133.6C86.6124 133.6 87.1337 133.634 87.664 133.702C88.1943 133.77 88.6979 133.839 89.1749 133.907L78.7711 151.793L71.7499 139.493C73.5949 137.683 75.7392 136.248 78.1828 135.188C80.6264 134.129 83.2654 133.6 86.0999 133.6ZM70.1099 141.338L80.4624 159.225H66.2661C66.0611 158.405 65.8985 157.568 65.7782 156.713C65.658 155.859 65.5985 154.988 65.5999 154.1C65.5999 151.708 66.0188 149.419 66.8565 147.232C67.6943 145.045 68.7787 143.081 70.1099 141.338Z" fill="#2C6BE5"/>
<path d="M22.14 161.531L14.965 173.831C11.8558 173.011 9.09655 171.508 6.68711 169.321C4.27768 167.134 2.52699 164.538 1.43502 161.531H22.14ZM27.8287 156.406L34.85 168.706C33.005 170.517 30.8607 171.952 28.4171 173.011C25.9735 174.07 23.3345 174.6 20.5 174.6C20.0558 174.6 19.5433 174.574 18.9625 174.522C18.3817 174.47 17.8521 174.41 17.3738 174.343L27.8287 156.406ZM40.3337 148.975C40.5387 149.795 40.7014 150.632 40.8216 151.486C40.9419 152.34 41.0013 153.211 41 154.1C41 156.525 40.6071 158.815 39.8212 160.967C39.0354 163.12 37.925 165.084 36.49 166.861L26.1375 148.975H40.3337ZM25.9837 134.368C29.0929 135.188 31.8604 136.692 34.2862 138.878C36.7121 141.065 38.4716 143.662 39.565 146.668H18.9113L25.9837 134.368ZM20.5 133.6C21.0125 133.6 21.5339 133.634 22.0641 133.702C22.5944 133.77 23.098 133.839 23.575 133.907L13.1713 151.793L6.15002 139.493C7.99501 137.683 10.1393 136.248 12.5829 135.188C15.0265 134.129 17.6655 133.6 20.5 133.6ZM4.51002 141.338L14.8625 159.225H0.666275C0.461277 158.405 0.298641 157.568 0.178375 156.713C0.0581093 155.859 -0.00134277 154.988 2.67029e-05 154.1C2.67029e-05 151.708 0.418911 149.419 1.25668 147.232C2.09444 145.045 3.17889 143.081 4.51002 141.338Z" fill="#2C6BE5"/>
<path d="M144.069 87.7396L131.769 80.5646C132.589 77.4555 134.092 74.6962 136.279 72.2867C138.465 69.8773 141.062 68.1266 144.069 67.0346V87.7396ZM149.194 93.4284L136.894 100.45C135.083 98.6046 133.648 96.4603 132.589 94.0167C131.53 91.5731 131 88.9341 131 86.0996C131 85.6554 131.026 85.1429 131.078 84.5621C131.13 83.9813 131.189 83.4517 131.256 82.9734L149.194 93.4284ZM156.625 105.933C155.805 106.138 154.968 106.301 154.114 106.421C153.26 106.542 152.388 106.601 151.5 106.6C149.074 106.6 146.785 106.207 144.632 105.421C142.48 104.635 140.515 103.525 138.739 102.09L156.625 91.7371V105.933ZM171.231 91.5834C170.411 94.6925 168.908 97.46 166.721 99.8858C164.535 102.312 161.938 104.071 158.931 105.165V84.5109L171.231 91.5834ZM172 86.0996C172 86.6121 171.966 87.1335 171.897 87.6638C171.829 88.194 171.761 88.6976 171.693 89.1746L153.806 78.7709L166.106 71.7496C167.917 73.5946 169.352 75.7389 170.411 78.1825C171.47 80.6261 172 83.2651 172 86.0996ZM164.261 70.1096L146.375 80.4621V66.2659C147.195 66.0609 148.032 65.8983 148.886 65.778C149.74 65.6577 150.612 65.5983 151.5 65.5996C153.892 65.5996 156.181 66.0185 158.368 66.8563C160.554 67.694 162.519 68.7785 164.261 70.1096Z" fill="#2C6BE5"/>
<path d="M144.069 22.14L131.769 14.965C132.589 11.8558 134.092 9.09655 136.279 6.68711C138.465 4.27768 141.062 2.52699 144.069 1.43502V22.14ZM149.194 27.8287L136.894 34.85C135.083 33.005 133.648 30.8607 132.589 28.4171C131.53 25.9735 131 23.3345 131 20.5C131 20.0558 131.026 19.5433 131.078 18.9625C131.13 18.3817 131.189 17.8521 131.256 17.3738L149.194 27.8287ZM156.625 40.3337C155.805 40.5387 154.968 40.7014 154.114 40.8216C153.26 40.9419 152.388 41.0013 151.5 41C149.074 41 146.785 40.6071 144.632 39.8212C142.48 39.0354 140.515 37.925 138.739 36.49L156.625 26.1375V40.3337ZM171.231 25.9837C170.411 29.0929 168.908 31.8604 166.721 34.2862C164.535 36.7121 161.938 38.4716 158.931 39.565V18.9113L171.231 25.9837ZM172 20.5C172 21.0125 171.966 21.5339 171.897 22.0641C171.829 22.5944 171.761 23.098 171.693 23.575L153.806 13.1713L166.106 6.15002C167.917 7.99501 169.352 10.1393 170.411 12.5829C171.47 15.0265 172 17.6655 172 20.5ZM164.261 4.51002L146.375 14.8625V0.666275C147.195 0.461277 148.032 0.298641 148.886 0.178375C149.74 0.0581093 150.612 -0.00134277 151.5 2.67029e-05C153.892 2.67029e-05 156.181 0.418911 158.368 1.25668C160.554 2.09444 162.519 3.17889 164.261 4.51002Z" fill="#2C6BE5"/>
</svg>
