<svg width="64" height="57" viewBox="0 0 64 57" fill="none" xmlns="http://www.w3.org/2000/svg">
<path d="M23.8049 30.3026C23.8049 28.1753 24.62 26.135 26.0707 24.6307C27.5214 23.1265 29.4891 22.2814 31.5407 22.2814C33.5924 22.2814 35.56 23.1265 37.0108 24.6307C38.4615 26.135 39.2766 28.1753 39.2766 30.3026C39.2766 32.43 38.4615 34.4702 37.0108 35.9745C35.56 37.4788 33.5924 38.3239 31.5407 38.3239C29.4891 38.3239 27.5214 37.4788 26.0707 35.9745C24.62 34.4702 23.8049 32.43 23.8049 30.3026Z" fill="#2C6BE5"/>
<path fill-rule="evenodd" clip-rule="evenodd" d="M15.9799 11.2012C15.9799 9.73028 16.2593 8.27371 16.8022 6.91471C17.3451 5.55572 18.1408 4.3209 19.1439 3.28077C21.1698 1.18013 23.9175 0 26.7825 0H36.2993C39.1643 0 41.912 1.18013 43.9379 3.28077C45.9638 5.38141 47.1019 8.23049 47.1019 11.2012C47.1025 11.2267 47.1118 11.2511 47.1282 11.27C47.1446 11.289 47.167 11.3012 47.1913 11.3046L54.8583 11.9463C58.293 12.2387 61.1158 14.8696 61.7587 18.3812C63.3933 27.3382 63.5143 36.5216 62.1163 45.5215L61.7828 47.6748C61.4768 49.6476 60.5415 51.4571 59.1266 52.8137C57.7117 54.1703 55.8989 54.9956 53.9782 55.1577L47.2979 55.7174C36.8105 56.6007 26.2713 56.6007 15.7839 55.7174L9.10361 55.1577C7.18239 54.9955 5.3692 54.1696 3.95423 52.8123C2.53926 51.455 1.60432 49.6447 1.29904 47.6712L0.965543 45.5215C-0.433779 36.5199 -0.310007 27.34 1.32311 18.3812C1.63538 16.6736 2.47965 15.1195 3.72623 13.9577C4.97282 12.7958 6.55279 12.0905 8.22345 11.9499L15.8905 11.3046C15.9154 11.3028 15.9387 11.291 15.9554 11.2717C15.9721 11.2524 15.9808 11.2271 15.9799 11.2012ZM31.5409 16.9338C28.1215 16.9338 24.8421 18.3423 22.4242 20.8494C20.0063 23.3565 18.6479 26.7569 18.6479 30.3025C18.6479 33.8482 20.0063 37.2486 22.4242 39.7557C24.8421 42.2628 28.1215 43.6713 31.5409 43.6713C34.9603 43.6713 38.2397 42.2628 40.6576 39.7557C43.0756 37.2486 44.4339 33.8482 44.4339 30.3025C44.4339 26.7569 43.0756 23.3565 40.6576 20.8494C38.2397 18.3423 34.9603 16.9338 31.5409 16.9338Z" fill="#2C6BE5"/>
</svg>
