<svg width="168" height="124" viewBox="0 0 168 124" fill="none" xmlns="http://www.w3.org/2000/svg">
<mask id="mask0_9_1204" style="mask-type:luminance" maskUnits="userSpaceOnUse" x="0" y="0" width="56" height="124">
<path d="M0 0H55.6494V124H0V0Z" fill="white"/>
</mask>
<g mask="url(#mask0_9_1204)">
<path d="M30.7641 37.3567H30.8237C30.8237 32.1597 30.8295 26.9647 30.8218 21.7696C30.816 19.3969 30.8064 17.0241 30.7525 14.6513C30.7256 13.4823 30.364 12.3229 29.227 11.8715C26.8147 10.9108 24.8025 12.3653 24.8025 14.9426C24.8044 27.6109 24.8102 40.2773 24.8159 52.9457C24.8179 55.1583 24.8198 57.371 24.8352 59.5837C24.8467 60.9244 25.6085 62.4002 26.4915 62.5911C28.5903 63.0406 30.8256 62.5757 30.791 59.5798C30.7064 52.1721 30.7641 44.7644 30.7641 37.3567ZM0.0095716 61.6517C0.0095716 46.6433 0.0114953 31.6369 0.00572416 16.6306C0.00572416 13.8469 0.455875 11.1404 1.38888 8.52837C3.10099 3.73265 6.78684 1.43318 11.5788 0.601738C15.0992 -0.00785503 18.6581 0.215919 22.2035 0.198558C28.1825 0.169621 34.1614 0.202416 40.1403 0.248714C42.6142 0.268005 45.0573 0.588234 47.3292 1.64345C52.1289 3.8754 54.4585 7.84354 55.0607 12.9614C55.1876 14.0417 55.1896 15.1394 55.1915 16.2274C55.203 35.9813 55.1992 55.7332 55.228 75.4871C55.23 76.3803 54.7067 76.1816 54.2315 76.1816C45.5344 76.1874 36.8373 76.1854 28.1382 76.1854C27.8516 76.1854 27.563 76.1796 27.2764 76.1893C25.7547 76.2433 24.841 77.1345 24.8082 78.6662C24.7775 80.1729 24.8025 81.6795 24.8025 83.1861C24.8025 92.2933 24.8006 101.401 24.8025 110.508C24.8025 113.06 27.2802 114.501 29.5194 113.241C30.5582 112.657 30.8622 111.679 30.8564 110.552C30.8353 107.153 30.8083 103.756 30.8045 100.357C30.7949 94.6815 30.816 89.0042 30.7852 83.3288C30.7795 82.536 30.8968 82.237 31.8048 82.2428C39.2881 82.2871 46.7714 82.2814 54.2527 82.2505C55.0607 82.2466 55.2761 82.4839 55.2704 83.2729C55.2069 91.9615 55.3396 100.652 55.1588 109.341C55.0915 112.557 54.422 115.574 52.5214 118.213C49.8743 121.884 46.1404 123.545 41.737 123.722C32.886 124.081 24.0253 124.027 15.1685 123.919C12.3329 123.884 9.60509 123.153 7.05423 121.901C3.23565 120.024 1.36387 116.733 0.573222 112.697C-0.0596825 109.466 0.0018767 106.191 0.0018767 102.923C0.00380042 89.1644 0.00380042 75.408 0.00380042 61.6517" fill="#2C6BE5"/>
</g>
<mask id="mask1_9_1204" style="mask-type:luminance" maskUnits="userSpaceOnUse" x="63" y="0" width="56" height="124">
<path d="M63.0364 0H118.686V124H63.0364V0Z" fill="white"/>
</mask>
<g mask="url(#mask1_9_1204)">
<path d="M63.2539 44.5718C63.2539 35.015 63.2519 25.4583 63.2558 15.9016C63.2577 14.1018 63.4866 12.3251 63.9041 10.5715C65.2565 4.89616 68.9365 1.50868 74.7019 0.596221C78.2935 0.0271391 81.912 0.21619 85.519 0.198828C91.4364 0.169892 97.3518 0.208474 103.267 0.247055C105.418 0.260559 107.54 0.532561 109.579 1.25983C114.563 3.03652 117.888 7.66634 118.23 13.0929C118.472 16.9375 118.449 20.7842 118.455 24.6308C118.47 34.99 118.443 45.3492 118.467 55.7065C118.468 56.4665 118.268 56.644 117.528 56.6402C109.948 56.6112 102.367 56.6112 94.7875 56.6402C94.0449 56.6421 93.8429 56.4646 93.8449 55.7007C93.8699 42.1353 93.8622 28.57 93.8622 15.0046C93.8622 14.6207 93.8737 14.231 93.8314 13.851C93.7083 12.7765 93.0965 12.082 92.05 11.864C91.0862 11.6615 90.1359 11.7888 89.2318 12.1553C88.6008 12.4119 88.218 12.898 88.0525 13.5713C87.9371 14.0478 87.9371 14.5243 87.9371 15.0046C87.9371 29.7891 87.9371 44.5737 87.9371 59.3582C87.9371 61.9278 88.7566 62.7515 91.3132 62.7515C100.012 62.7515 108.711 62.7612 117.41 62.7341C118.19 62.7322 118.476 62.8345 118.472 63.7392C118.428 78.5874 118.438 93.4356 118.411 108.284C118.405 111.951 117.566 115.4 115.402 118.427C113.115 121.622 109.948 123.34 106.072 123.562C96.8074 124.093 87.5293 123.981 78.257 123.906C75.7811 123.884 73.3823 123.294 71.0911 122.345C66.5415 120.456 64.3485 116.787 63.527 112.123C63.2308 110.448 63.1558 108.749 63.1577 107.047C63.1615 99.1573 63.1769 91.2693 63.1365 83.3793C63.1327 82.4089 63.3904 82.1755 64.3542 82.1813C71.9029 82.2276 79.4497 82.2199 86.9964 82.189C87.7678 82.1852 87.9236 82.4051 87.9217 83.1381C87.8967 92.2145 87.9448 101.291 87.8833 110.365C87.864 113.404 89.68 113.847 92.2905 113.429C93.1985 113.284 93.8237 112.009 93.8256 110.695C93.8352 105.276 93.8429 99.8556 93.8468 94.4368C93.8487 89.3054 93.8487 84.1721 93.8468 79.0427C93.8449 76.7895 93.0985 76.0468 90.8516 76.0429C81.9293 76.0314 73.0071 76.0101 64.0849 76.0275C63.325 76.0275 63.1404 75.8211 63.1423 75.0707C63.1673 64.9044 63.1596 54.7381 63.1596 44.5718" fill="#2C6BE5"/>
</g>
<mask id="mask2_9_1204" style="mask-type:luminance" maskUnits="userSpaceOnUse" x="126" y="38" width="26" height="86">
<path d="M126.073 38.52H151.189V124H126.073V38.52Z" fill="white"/>
</mask>
<g mask="url(#mask2_9_1204)">
<path d="M150.835 81.3386C150.835 95.1895 150.825 109.04 150.856 122.891C150.858 123.777 150.625 123.971 149.769 123.968C142.288 123.931 134.806 123.937 127.325 123.962C126.607 123.964 126.369 123.825 126.369 123.04C126.392 95.2107 126.392 67.3797 126.369 39.5506C126.369 38.8041 126.581 38.6729 127.271 38.6748C134.783 38.6999 142.297 38.7038 149.811 38.671C150.619 38.6671 150.86 38.8157 150.858 39.6895C150.825 53.5713 150.835 67.4549 150.835 81.3386Z" fill="#2C6BE5"/>
</g>
<path d="M139.573 0.00389873C143.475 0.00389873 147.374 -0.00381763 151.274 0.00582784C153.901 0.0116151 155.104 1.21344 155.004 3.86208C154.802 9.30983 154.892 14.7576 154.913 20.2053C154.921 21.928 153.653 23.479 151.941 23.6526C147.111 24.1445 142.276 24.5902 137.442 25.0396C134.483 25.3155 131.528 25.655 128.564 25.7958C125.205 25.9579 124.543 25.2017 124.497 21.82C124.418 15.8282 124.305 9.83454 124.209 3.84279C124.161 1.00896 125.124 0.0251187 127.972 0.0193315C131.838 0.0135442 135.707 0.0193315 139.573 0.0193315" fill="#F38040"/>
<mask id="mask3_9_1204" style="mask-type:luminance" maskUnits="userSpaceOnUse" x="126" y="26" width="42" height="10">
<path d="M126.073 26.1738H167.681V35.0631H126.073V26.1738Z" fill="white"/>
</mask>
<g mask="url(#mask3_9_1204)">
<path d="M137.823 34.6194C137.346 34.602 136.936 34.4303 136.538 34.222C133.4 32.588 130.245 30.983 127.019 29.5266C126.808 29.4301 126.442 29.4262 126.527 29.0655C126.594 28.7742 126.902 28.9035 127.1 28.888C130.555 28.6006 134.02 28.3884 137.471 28.0759C138.756 27.9601 139.519 27.8753 141.024 27.7151C144.277 27.3698 149.136 26.8663 155.9 26.2104C157.724 26.8085 159.184 27.3563 160.178 27.746C163.726 29.133 166.486 30.2712 167.094 30.5142C167.308 30.5991 167.704 30.549 167.681 30.8904C167.652 31.311 167.24 31.1586 166.99 31.1914C160.315 32.0672 153.615 32.7423 146.926 33.5063C144.769 33.7513 141.639 34.1216 137.823 34.6194Z" fill="#F38040"/>
</g>
</svg>
