<svg width="53" height="52" viewBox="0 0 53 52" fill="none" xmlns="http://www.w3.org/2000/svg">
<path d="M15.7687 0C7.39322 0 0.580322 6.80757 0.580322 15.1709V36.8376C0.580322 45.1987 7.39952 52 15.7772 52H37.4809C45.8563 52 52.6692 45.1924 52.6692 36.8291V15.1624C52.6692 6.80127 45.85 0 37.4724 0H15.7687ZM41.8174 8.66667C43.0154 8.66667 43.9877 9.63733 43.9877 10.8333C43.9877 12.0293 43.0154 13 41.8174 13C40.6193 13 39.647 12.0293 39.647 10.8333C39.647 9.63733 40.6193 8.66667 41.8174 8.66667ZM26.6248 13C33.8065 13 39.647 18.8305 39.647 26C39.647 33.1695 33.8065 39 26.6248 39C19.443 39 13.6025 33.1695 13.6025 26C13.6025 18.8305 19.443 13 26.6248 13ZM26.6248 17.3333C24.3223 17.3333 22.1141 18.2464 20.486 19.8717C18.8579 21.4971 17.9433 23.7015 17.9433 26C17.9433 28.2985 18.8579 30.5029 20.486 32.1283C22.1141 33.7536 24.3223 34.6667 26.6248 34.6667C28.9272 34.6667 31.1354 33.7536 32.7635 32.1283C34.3916 30.5029 35.3062 28.2985 35.3062 26C35.3062 23.7015 34.3916 21.4971 32.7635 19.8717C31.1354 18.2464 28.9272 17.3333 26.6248 17.3333Z" fill="#2C6BE5"/>
</svg>
