<svg width="49" height="48" viewBox="0 0 49 48" fill="none" xmlns="http://www.w3.org/2000/svg">
<path d="M43.7382 0.166992H4.67155C2.27329 0.166992 0.330811 2.10616 0.330811 4.50033V43.5003C0.330811 45.8945 2.27329 47.8337 4.67155 47.8337H43.7382C46.1365 47.8337 48.079 45.8945 48.079 43.5003V4.50033C48.079 2.10616 46.1365 0.166992 43.7382 0.166992ZM15.4236 39.167H9.02097V18.601H15.4236V39.167ZM12.1572 15.6608C10.0931 15.6608 8.42412 13.9903 8.42412 11.9342C8.42412 9.87799 10.0953 8.20966 12.1572 8.20966C14.2147 8.20966 15.888 9.88016 15.888 11.9342C15.888 13.9903 14.2147 15.6608 12.1572 15.6608ZM39.4062 39.167H33.0079V29.1657C33.0079 26.7802 32.9645 23.7122 29.6807 23.7122C26.3492 23.7122 25.837 26.31 25.837 28.9923V39.167H19.4387V18.601H25.5809V21.4112H25.6677C26.5228 19.7948 28.6107 18.0897 31.7252 18.0897C38.2081 18.0897 39.4062 22.3493 39.4062 27.8873V39.167Z" fill="#2C6BE5"/>
</svg>
