<svg width="175" height="173" viewBox="0 0 175 173" fill="none" xmlns="http://www.w3.org/2000/svg">
<path d="M161.531 18.86L173.831 26.035C173.011 29.1442 171.508 31.9035 169.321 34.3129C167.135 36.7223 164.538 38.473 161.531 39.565V18.86ZM156.406 13.1713L168.706 6.15002C170.517 7.99501 171.952 10.1393 173.011 12.5829C174.071 15.0265 174.6 17.6655 174.6 20.5C174.6 20.9442 174.574 21.4567 174.522 22.0375C174.47 22.6183 174.411 23.1479 174.344 23.6262L156.406 13.1713ZM148.975 0.666272C149.795 0.461273 150.632 0.298639 151.486 0.178373C152.341 0.0581061 153.212 -0.00134363 154.1 2.30338e-05C156.526 2.30338e-05 158.815 0.392939 160.968 1.17877C163.12 1.9646 165.085 3.07502 166.861 4.51002L148.975 14.8625V0.666272ZM134.369 15.0163C135.189 11.9071 136.692 9.1396 138.879 6.71377C141.066 4.28793 143.662 2.52835 146.669 1.43502V22.0887L134.369 15.0163ZM133.6 20.5C133.6 19.9875 133.634 19.4661 133.703 18.9359C133.771 18.4056 133.839 17.902 133.908 17.425L151.794 27.8287L139.494 34.85C137.683 33.005 136.248 30.8607 135.189 28.4171C134.13 25.9735 133.6 23.3345 133.6 20.5ZM141.339 36.49L159.225 26.1375V40.3337C158.405 40.5387 157.568 40.7014 156.714 40.8216C155.86 40.9419 154.988 41.0013 154.1 41C151.708 41 149.419 40.5811 147.233 39.7433C145.046 38.9056 143.081 37.8211 141.339 36.49Z" fill="#F38040"/>
<path d="M161.531 84.4601L173.831 91.6351C173.011 94.7443 171.508 97.5036 169.321 99.913C167.135 102.322 164.538 104.073 161.531 105.165V84.4601ZM156.406 78.7714L168.706 71.7501C170.517 73.5951 171.952 75.7394 173.011 78.183C174.071 80.6266 174.6 83.2656 174.6 86.1001C174.6 86.5443 174.574 87.0568 174.522 87.6376C174.47 88.2184 174.411 88.748 174.344 89.2263L156.406 78.7714ZM148.975 66.2664C149.795 66.0614 150.632 65.8987 151.486 65.7785C152.341 65.6582 153.212 65.5988 154.1 65.6001C156.526 65.6001 158.815 65.993 160.968 66.7789C163.12 67.5647 165.085 68.6751 166.861 70.1101L148.975 80.4626V66.2664ZM134.369 80.6164C135.189 77.5072 136.692 74.7397 138.879 72.3139C141.066 69.888 143.662 68.1285 146.669 67.0351V87.6888L134.369 80.6164ZM133.6 86.1001C133.6 85.5876 133.634 85.0662 133.703 84.5359C133.771 84.0057 133.839 83.5021 133.908 83.0251L151.794 93.4288L139.494 100.45C137.683 98.6051 136.248 96.4608 135.189 94.0172C134.13 91.5736 133.6 88.9346 133.6 86.1001ZM141.339 102.09L159.225 91.7376V105.934C158.405 106.139 157.568 106.301 156.714 106.422C155.86 106.542 154.988 106.601 154.1 106.6C151.708 106.6 149.419 106.181 147.233 105.343C145.046 104.506 143.081 103.421 141.339 102.09Z" fill="#2C6BE5"/>
<path d="M161.531 150.06L173.831 157.235C173.011 160.344 171.508 163.104 169.321 165.513C167.135 167.923 164.538 169.673 161.531 170.765V150.06ZM156.406 144.371L168.706 137.35C170.517 139.195 171.952 141.34 173.011 143.783C174.071 146.227 174.6 148.866 174.6 151.7C174.6 152.144 174.574 152.657 174.522 153.238C174.47 153.819 174.411 154.348 174.344 154.826L156.406 144.371ZM148.975 131.866C149.795 131.661 150.632 131.499 151.486 131.379C152.341 131.258 153.212 131.199 154.1 131.2C156.526 131.2 158.815 131.593 160.968 132.379C163.12 133.165 165.085 134.275 166.861 135.71L148.975 146.063V131.866ZM134.369 146.216C135.189 143.107 136.692 140.34 138.879 137.914C141.066 135.488 143.662 133.729 146.669 132.635V153.289L134.369 146.216ZM133.6 151.7C133.6 151.188 133.634 150.666 133.703 150.136C133.771 149.606 133.839 149.102 133.908 148.625L151.794 159.029L139.494 166.05C137.683 164.205 136.248 162.061 135.189 159.617C134.13 157.174 133.6 154.535 133.6 151.7ZM141.339 167.69L159.225 157.338V171.534C158.405 171.739 157.568 171.902 156.714 172.022C155.86 172.142 154.988 172.202 154.1 172.2C151.708 172.2 149.419 171.781 147.233 170.944C145.046 170.106 143.081 169.021 141.339 167.69Z" fill="#2C6BE5"/>
<path d="M87.7401 28.1314L80.5651 40.4314C77.4559 39.6114 74.6966 38.1081 72.2872 35.9214C69.8778 33.7348 68.1271 31.1381 67.0351 28.1314L87.7401 28.1314ZM93.4288 23.0064L100.45 35.3064C98.6051 37.1173 96.4608 38.5523 94.0172 39.6114C91.5736 40.6706 88.9346 41.2002 86.1001 41.2002C85.6559 41.2002 85.1434 41.1742 84.5626 41.1223C83.9818 41.0704 83.4522 41.0109 82.9739 40.9439L93.4288 23.0064ZM105.934 15.5752C106.139 16.3952 106.301 17.2323 106.422 18.0864C106.542 18.9406 106.601 19.8119 106.6 20.7002C106.6 23.126 106.207 25.4152 105.421 27.5677C104.635 29.7202 103.525 31.6848 102.09 33.4614L91.7376 15.5752H105.934ZM91.5838 0.968945C94.693 1.78895 97.4605 3.29228 99.8863 5.47895C102.312 7.66562 104.072 10.2623 105.165 13.2689L84.5114 13.2689L91.5838 0.968945ZM86.1001 0.200195C86.6126 0.200195 87.134 0.23436 87.6642 0.302696C88.1945 0.371029 88.6981 0.439362 89.1751 0.507694L78.7714 18.3939L71.7501 6.09394C73.5951 4.28311 75.7394 2.84811 78.183 1.78894C80.6266 0.729778 83.2656 0.200195 86.1001 0.200195ZM70.1101 7.93895L80.4626 25.8252L66.2664 25.8252C66.0614 25.0052 65.8987 24.1681 65.7785 23.3139C65.6582 22.4598 65.5988 21.5885 65.6001 20.7002C65.6001 18.3085 66.019 16.0194 66.8568 13.8327C67.6945 11.646 68.779 9.68145 70.1101 7.93895Z" fill="#2C6BE5"/>
<path d="M22.14 28.1314L14.965 40.4314C11.8558 39.6114 9.09655 38.1081 6.68711 35.9214C4.27768 33.7348 2.52699 31.1381 1.43502 28.1314L22.14 28.1314ZM27.8287 23.0064L34.85 35.3064C33.005 37.1173 30.8607 38.5523 28.4171 39.6114C25.9735 40.6706 23.3345 41.2002 20.5 41.2002C20.0558 41.2002 19.5433 41.1742 18.9625 41.1223C18.3817 41.0704 17.8521 41.0109 17.3738 40.9439L27.8287 23.0064ZM40.3337 15.5752C40.5387 16.3952 40.7014 17.2323 40.8216 18.0864C40.9419 18.9406 41.0013 19.8119 41 20.7002C41 23.126 40.6071 25.4152 39.8212 27.5677C39.0354 29.7202 37.925 31.6848 36.49 33.4614L26.1375 15.5752H40.3337ZM25.9837 0.968945C29.0929 1.78895 31.8604 3.29228 34.2862 5.47895C36.7121 7.66562 38.4716 10.2623 39.565 13.2689L18.9113 13.2689L25.9837 0.968945ZM20.5 0.200195C21.0125 0.200195 21.5339 0.23436 22.0641 0.302696C22.5944 0.371029 23.098 0.439362 23.575 0.507694L13.1713 18.3939L6.15002 6.09394C7.99501 4.28311 10.1393 2.84811 12.5829 1.78894C15.0265 0.729778 17.6655 0.200195 20.5 0.200195ZM4.51002 7.93895L14.8625 25.8252L0.666275 25.8252C0.461277 25.0052 0.298641 24.1681 0.178375 23.3139C0.0581093 22.4598 -0.00134277 21.5885 2.67029e-05 20.7002C2.67029e-05 18.3085 0.418911 16.0194 1.25668 13.8327C2.09444 11.646 3.17889 9.68145 4.51002 7.93895Z" fill="#2C6BE5"/>
</svg>
