<svg width="173" height="175" viewBox="0 0 173 175" fill="none" xmlns="http://www.w3.org/2000/svg">
<path d="M18.86 13.0687L26.035 0.76875C29.1442 1.58875 31.9035 3.09208 34.3129 5.27875C36.7223 7.46542 38.473 10.0621 39.565 13.0687H18.86ZM13.1713 18.1938L6.15002 5.89375C7.99501 4.08292 10.1393 2.64792 12.5829 1.58875C15.0265 0.529584 17.6655 0 20.5 0C20.9442 0 21.4567 0.0259669 22.0375 0.0779002C22.6183 0.129834 23.1479 0.189283 23.6262 0.25625L13.1713 18.1938ZM0.666272 25.625C0.461273 24.805 0.298639 23.9679 0.178373 23.1137C0.0581061 22.2596 -0.00134363 21.3883 2.30338e-05 20.5C2.30338e-05 18.0742 0.392939 15.785 1.17877 13.6325C1.9646 11.48 3.07502 9.51542 4.51002 7.73875L14.8625 25.625H0.666272ZM15.0163 40.2313C11.9071 39.4112 9.1396 37.9079 6.71377 35.7212C4.28793 33.5346 2.52835 30.9379 1.43502 27.9312H22.0887L15.0163 40.2313ZM20.5 41C19.9875 41 19.4661 40.9658 18.9359 40.8975C18.4056 40.8292 17.902 40.7608 17.425 40.6925L27.8287 22.8062L34.85 35.1063C33.005 36.9171 30.8607 38.3521 28.4171 39.4113C25.9735 40.4704 23.3345 41 20.5 41ZM36.49 33.2612L26.1375 15.375H40.3337C40.5387 16.195 40.7014 17.0321 40.8216 17.8862C40.9419 18.7404 41.0013 19.6117 41 20.5C41 22.8917 40.5811 25.1808 39.7433 27.3675C38.9056 29.5542 37.8211 31.5187 36.49 33.2612Z" fill="#F38040"/>
<path d="M84.46 13.0687L91.635 0.76875C94.7441 1.58875 97.5034 3.09208 99.9129 5.27875C102.322 7.46542 104.073 10.0621 105.165 13.0687H84.46ZM78.7712 18.1938L71.75 5.89375C73.595 4.08292 75.7393 2.64792 78.1829 1.58875C80.6265 0.529584 83.2655 0 86.1 0C86.5441 0 87.0566 0.0259669 87.6375 0.0779002C88.2183 0.129834 88.7479 0.189283 89.2262 0.25625L78.7712 18.1938ZM66.2662 25.625C66.0612 24.805 65.8986 23.9679 65.7783 23.1137C65.6581 22.2596 65.5986 21.3883 65.6 20.5C65.6 18.0742 65.9929 15.785 66.7787 13.6325C67.5646 11.48 68.675 9.51542 70.11 7.73875L80.4625 25.625H66.2662ZM80.6162 40.2313C77.5071 39.4112 74.7396 37.9079 72.3137 35.7212C69.8879 33.5346 68.1283 30.9379 67.035 27.9312H87.6887L80.6162 40.2313ZM86.1 41C85.5875 41 85.0661 40.9658 84.5358 40.8975C84.0056 40.8292 83.5019 40.7608 83.025 40.6925L93.4287 22.8062L100.45 35.1063C98.605 36.9171 96.4607 38.3521 94.0171 39.4113C91.5735 40.4704 88.9344 41 86.1 41ZM102.09 33.2612L91.7375 15.375H105.934C106.139 16.195 106.301 17.0321 106.422 17.8862C106.542 18.7404 106.601 19.6117 106.6 20.5C106.6 22.8917 106.181 25.1808 105.343 27.3675C104.506 29.5542 103.421 31.5187 102.09 33.2612Z" fill="#2C6BE5"/>
<path d="M150.06 13.0687L157.235 0.76875C160.344 1.58875 163.103 3.09208 165.513 5.27875C167.922 7.46542 169.673 10.0621 170.765 13.0687H150.06ZM144.371 18.1938L137.35 5.89375C139.195 4.08292 141.339 2.64792 143.783 1.58875C146.226 0.529584 148.865 0 151.7 0C152.144 0 152.657 0.0259669 153.237 0.0779002C153.818 0.129834 154.348 0.189283 154.826 0.25625L144.371 18.1938ZM131.866 25.625C131.661 24.805 131.499 23.9679 131.378 23.1137C131.258 22.2596 131.199 21.3883 131.2 20.5C131.2 18.0742 131.593 15.785 132.379 13.6325C133.165 11.48 134.275 9.51542 135.71 7.73875L146.062 25.625H131.866ZM146.216 40.2313C143.107 39.4112 140.34 37.9079 137.914 35.7212C135.488 33.5346 133.728 30.9379 132.635 27.9312H153.289L146.216 40.2313ZM151.7 41C151.187 41 150.666 40.9658 150.136 40.8975C149.606 40.8292 149.102 40.7608 148.625 40.6925L159.029 22.8062L166.05 35.1063C164.205 36.9171 162.061 38.3521 159.617 39.4113C157.173 40.4704 154.534 41 151.7 41ZM167.69 33.2612L157.337 15.375H171.534C171.739 16.195 171.901 17.0321 172.022 17.8862C172.142 18.7404 172.201 19.6117 172.2 20.5C172.2 22.8917 171.781 25.1808 170.943 27.3675C170.106 29.5542 169.021 31.5187 167.69 33.2612Z" fill="#2C6BE5"/>
<path d="M28.1312 86.86L40.4312 94.035C39.6112 97.1442 38.1079 99.9035 35.9212 102.313C33.7345 104.722 31.1379 106.473 28.1312 107.565L28.1312 86.86ZM23.0062 81.1713L35.3062 74.15C37.117 75.995 38.552 78.1393 39.6112 80.5829C40.6704 83.0265 41.2 85.6655 41.2 88.5C41.2 88.9442 41.174 89.4567 41.1221 90.0375C41.0701 90.6183 41.0107 91.1479 40.9437 91.6262L23.0062 81.1713ZM15.575 68.6663C16.395 68.4613 17.232 68.2986 18.0862 68.1784C18.9404 68.0581 19.8116 67.9987 20.7 68C23.1258 68 25.415 68.3929 27.5675 69.1788C29.72 69.9646 31.6845 71.075 33.4612 72.51L15.575 82.8625V68.6663ZM0.9687 83.0163C1.7887 79.9071 3.29204 77.1396 5.4787 74.7138C7.66537 72.2879 10.262 70.5284 13.2687 69.435V90.0887L0.9687 83.0163ZM0.199951 88.5C0.199951 87.9875 0.234116 87.4661 0.302452 86.9359C0.370785 86.4056 0.439117 85.902 0.50745 85.425L18.3937 95.8287L6.0937 102.85C4.28287 101.005 2.84787 98.8607 1.7887 96.4171C0.729534 93.9735 0.199951 91.3345 0.199951 88.5ZM7.9387 104.49L25.825 94.1375L25.825 108.334C25.005 108.539 24.1679 108.701 23.3137 108.822C22.4595 108.942 21.5883 109.001 20.7 109C18.3083 109 16.0191 108.581 13.8325 107.743C11.6458 106.906 9.6812 105.821 7.9387 104.49Z" fill="#2C6BE5"/>
<path d="M28.1312 152.46L40.4312 159.635C39.6112 162.744 38.1079 165.504 35.9212 167.913C33.7345 170.322 31.1379 172.073 28.1312 173.165L28.1312 152.46ZM23.0062 146.771L35.3062 139.75C37.117 141.595 38.552 143.739 39.6112 146.183C40.6704 148.627 41.2 151.266 41.2 154.1C41.2 154.544 41.174 155.057 41.1221 155.638C41.0701 156.218 41.0107 156.748 40.9437 157.226L23.0062 146.771ZM15.575 134.266C16.395 134.061 17.232 133.899 18.0862 133.778C18.9404 133.658 19.8116 133.599 20.7 133.6C23.1258 133.6 25.415 133.993 27.5675 134.779C29.72 135.565 31.6845 136.675 33.4612 138.11L15.575 148.463V134.266ZM0.9687 148.616C1.7887 145.507 3.29204 142.74 5.4787 140.314C7.66537 137.888 10.262 136.128 13.2687 135.035V155.689L0.9687 148.616ZM0.199951 154.1C0.199951 153.588 0.234116 153.066 0.302452 152.536C0.370785 152.006 0.439117 151.502 0.50745 151.025L18.3937 161.429L6.0937 168.45C4.28287 166.605 2.84787 164.461 1.7887 162.017C0.729534 159.574 0.199951 156.935 0.199951 154.1ZM7.9387 170.09L25.825 159.738L25.825 173.934C25.005 174.139 24.1679 174.301 23.3137 174.422C22.4595 174.542 21.5883 174.601 20.7 174.6C18.3083 174.6 16.0191 174.181 13.8325 173.343C11.6458 172.506 9.6812 171.421 7.9387 170.09Z" fill="#2C6BE5"/>
</svg>
