<svg width="105" height="25" viewBox="0 0 105 25" fill="none" xmlns="http://www.w3.org/2000/svg">
<path d="M11.5 7.96875L15.875 0.46875C17.7708 0.96875 19.4533 1.88542 20.9225 3.21875C22.3917 4.55208 23.4592 6.13542 24.125 7.96875H11.5ZM8.03126 11.0938L3.75001 3.59375C4.87501 2.48958 6.18251 1.61458 7.6725 0.96875C9.1625 0.322917 10.7717 0 12.5 0C12.7708 0 13.0833 0.0158335 13.4375 0.0475001C13.7917 0.0791668 14.1146 0.115417 14.4062 0.15625L8.03126 11.0938ZM0.406264 15.625C0.281264 15.125 0.182097 14.6146 0.108764 14.0938C0.0354305 13.5729 -0.000819287 13.0417 1.4045e-05 12.5C1.4045e-05 11.0208 0.239597 9.625 0.718763 8.3125C1.19793 7 1.87501 5.80208 2.75001 4.71875L9.0625 15.625H0.406264ZM9.15625 24.5312C7.26042 24.0312 5.57292 23.1146 4.09376 21.7812C2.61459 20.4479 1.54168 18.8646 0.875013 17.0312H13.4687L9.15625 24.5312ZM12.5 25C12.1875 25 11.8696 24.9792 11.5463 24.9375C11.2229 24.8958 10.9158 24.8542 10.625 24.8125L16.9687 13.9062L21.25 21.4062C20.125 22.5104 18.8175 23.3854 17.3275 24.0312C15.8375 24.6771 14.2283 25 12.5 25ZM22.25 20.2812L15.9375 9.375H24.5937C24.7187 9.875 24.8179 10.3854 24.8912 10.9062C24.9646 11.4271 25.0008 11.9583 25 12.5C25 13.9583 24.7446 15.3542 24.2337 16.6875C23.7229 18.0208 23.0617 19.2188 22.25 20.2812Z" fill="#2C6BE5"/>
<path d="M51.5 7.96875L55.875 0.46875C57.7708 0.96875 59.4533 1.88542 60.9225 3.21875C62.3917 4.55208 63.4592 6.13542 64.125 7.96875H51.5ZM48.0313 11.0938L43.75 3.59375C44.875 2.48958 46.1825 1.61458 47.6725 0.96875C49.1625 0.322917 50.7717 0 52.5 0C52.7708 0 53.0833 0.0158335 53.4375 0.0475001C53.7917 0.0791668 54.1146 0.115417 54.4062 0.15625L48.0313 11.0938ZM40.4063 15.625C40.2813 15.125 40.1821 14.6146 40.1088 14.0938C40.0354 13.5729 39.9992 13.0417 40 12.5C40 11.0208 40.2396 9.625 40.7188 8.3125C41.1979 7 41.875 5.80208 42.75 4.71875L49.0625 15.625H40.4063ZM49.1563 24.5312C47.2604 24.0312 45.5729 23.1146 44.0938 21.7812C42.6146 20.4479 41.5417 18.8646 40.875 17.0312H53.4687L49.1563 24.5312ZM52.5 25C52.1875 25 51.8696 24.9792 51.5463 24.9375C51.2229 24.8958 50.9158 24.8542 50.625 24.8125L56.9687 13.9062L61.25 21.4062C60.125 22.5104 58.8175 23.3854 57.3275 24.0312C55.8375 24.6771 54.2283 25 52.5 25ZM62.25 20.2812L55.9375 9.375H64.5937C64.7187 9.875 64.8179 10.3854 64.8912 10.9062C64.9646 11.4271 65.0008 11.9583 65 12.5C65 13.9583 64.7446 15.3542 64.2337 16.6875C63.7229 18.0208 63.0617 19.2188 62.25 20.2812Z" fill="#F38040"/>
<path d="M91.5 7.96875L95.875 0.46875C97.7708 0.96875 99.4533 1.88542 100.922 3.21875C102.392 4.55208 103.459 6.13542 104.125 7.96875H91.5ZM88.0313 11.0938L83.75 3.59375C84.875 2.48958 86.1825 1.61458 87.6725 0.96875C89.1625 0.322917 90.7717 0 92.5 0C92.7708 0 93.0833 0.0158335 93.4375 0.0475001C93.7917 0.0791668 94.1146 0.115417 94.4062 0.15625L88.0313 11.0938ZM80.4063 15.625C80.2813 15.125 80.1821 14.6146 80.1088 14.0938C80.0354 13.5729 79.9992 13.0417 80 12.5C80 11.0208 80.2396 9.625 80.7188 8.3125C81.1979 7 81.875 5.80208 82.75 4.71875L89.0625 15.625H80.4063ZM89.1563 24.5312C87.2604 24.0312 85.5729 23.1146 84.0938 21.7812C82.6146 20.4479 81.5417 18.8646 80.875 17.0312H93.4687L89.1563 24.5312ZM92.5 25C92.1875 25 91.8696 24.9792 91.5463 24.9375C91.2229 24.8958 90.9158 24.8542 90.625 24.8125L96.9687 13.9062L101.25 21.4062C100.125 22.5104 98.8175 23.3854 97.3275 24.0312C95.8375 24.6771 94.2283 25 92.5 25ZM102.25 20.2812L95.9375 9.375H104.594C104.719 9.875 104.818 10.3854 104.891 10.9062C104.965 11.4271 105.001 11.9583 105 12.5C105 13.9583 104.745 15.3542 104.234 16.6875C103.723 18.0208 103.062 19.2188 102.25 20.2812Z" fill="#2C6BE5"/>
</svg>
