<svg width="261" height="74" viewBox="0 0 261 74" fill="none" xmlns="http://www.w3.org/2000/svg">
<g filter="url(#filter0_d_218_56)">
<g filter="url(#filter1_i_218_56)">
<path d="M32.1074 52.9355C30.4379 60.3191 20.0658 59.7397 19.9875 53.078C19.9092 46.4163 19.6353 23.1213 19.6353 23.1213L8.79467 23.2488C5.14057 19.6277 6.06 17.8723 8.69574 14.834L42.4969 14.4366C44.1481 17.7042 44.2546 19.545 42.5958 22.8514L31.7552 22.9788C31.7552 22.9788 33.7769 45.5519 32.1074 52.9355Z" fill="#2C6BE5"/>
<path d="M46.7773 31.5322C47.8156 28.1985 48.343 23.412 48.3594 17.1728C48.6731 17.1242 49.1666 17.096 49.8399 17.0881C51.007 17.0743 52.1535 17.218 53.2794 17.5189C54.4054 17.8199 55.376 18.2798 56.1914 18.8986C55.9933 21.1451 55.5737 23.6412 54.9326 26.3867C54.2914 29.1322 53.3514 31.2753 52.1124 32.816C51.3124 33.1879 50.3598 32.7812 49.2805 32.5127C48.2617 32.2591 47.4554 31.9282 46.7773 31.5322Z" fill="#2C6BE5"/>
<path d="M67.8255 32.8422C67.8366 33.7847 68.3166 34.5196 69.2656 35.0471C70.2595 35.574 71.7925 36.1395 73.8648 36.7435C76.3432 37.5223 78.3724 38.284 79.9525 39.0284C81.5774 39.7724 82.983 40.9453 84.1691 42.5472C85.4001 44.1486 86.0308 46.2508 86.0614 48.8538C86.1596 57.2012 80.7771 61.4388 69.9141 61.5666C68.1185 61.5877 65.9172 61.4564 63.3099 61.1729C60.7476 60.8888 58.4086 60.5124 56.2931 60.0435C53.744 59.2642 53.9469 55.7536 53.9469 55.7536C53.9469 55.7536 53.9034 52.0596 57.6105 51.814C61.3175 51.5685 61.544 52.2615 64.6899 52.5387C67.8807 52.8154 70.2841 52.9443 71.9001 52.9253C72.8428 52.9142 73.4031 52.8403 73.581 52.7035C73.8483 52.5208 74.0468 52.2268 74.1768 51.8213C74.351 51.3704 74.4363 50.9878 74.4326 50.6737C74.4221 49.7761 73.9877 49.1079 73.1296 48.6692C72.2709 48.1855 70.8051 47.6193 68.7323 46.9703C66.2545 46.2364 64.2028 45.4751 62.5773 44.6863C60.9519 43.8974 59.5231 42.6574 58.2911 40.9663C57.059 39.2752 56.4266 37.0383 56.3939 34.2558C56.3707 32.2812 56.7969 30.3461 57.6725 28.4506C58.5476 26.5103 59.4525 25.198 60.3873 24.5137C61.0997 24.0116 62.5755 23.523 64.8146 23.0478C67.0538 22.5726 69.1609 22.3234 71.136 22.3002C76.1635 22.2411 82.1533 22.6056 83.4745 23.569C84.7957 24.5324 84.8369 28.0386 84.8369 28.0386C84.8369 28.0386 84.7815 30.2442 84.5275 31.5488L80.8073 31.545C74.967 31.2097 71.2389 31.0516 69.6229 31.0706C68.9496 31.0785 68.5683 31.1054 68.479 31.1513C68.3005 31.2432 68.1458 31.447 68.0148 31.7627C67.8838 32.0785 67.8207 32.4383 67.8255 32.8422Z" fill="#2C6BE5"/>
<path d="M112.076 56.8337L96.9265 57.0118C96.9265 57.0118 87.4976 22.4489 86.5774 18.7567C85.6571 15.0646 97.9272 14.5697 99.5053 18.6047C101.083 22.6398 104.954 46.751 104.954 46.751L105.291 46.747L110.413 18.4765C115.005 13.7415 117.789 13.9121 123.072 18.3277L128.992 46.4683L129.194 46.466C129.194 46.466 132.977 20.8622 134.047 18.1986C135.117 15.5351 146.327 14.3513 146.436 18.053C146.546 21.7547 136.99 56.5408 136.99 56.5408L121.907 56.7181L117.04 32.2681L116.636 32.2728L112.076 56.8337Z" fill="#2C6BE5"/>
<path d="M150.738 23.1951C155.107 18.9866 160.994 20.4234 162.858 23.0526C164.722 25.6818 163.309 61.4241 163.309 61.4241C163.309 61.4241 151.243 66.1245 151.189 61.5666C151.136 57.0086 150.738 23.1951 150.738 23.1951Z" fill="#2C6BE5"/>
<path d="M207.615 56.6009C207.535 59.0564 194.889 56.7506 194.889 56.7506L192.486 47.0836C192.392 46.7257 192.228 46.1216 191.993 45.2716C191.803 44.3761 191.571 43.728 191.297 43.3273C191.022 42.8817 190.637 42.5944 190.142 42.4656C188.886 42.5252 187.045 42.5693 184.621 42.5978C184.621 42.5978 184.76 54.4151 184.789 56.8693C184.818 59.3235 172.669 57.0118 172.669 57.0118L172.222 18.977C177.649 18.5092 182.719 18.2476 187.432 18.1922C191.697 18.1421 195.157 18.4604 197.814 19.1474C200.471 19.7894 202.46 20.9555 203.781 22.6456C205.148 24.2903 205.848 26.5712 205.882 29.4883C205.914 32.2259 205.311 34.3875 204.073 35.973C202.834 37.5137 200.825 38.4574 198.045 38.8043L198.05 39.2082C199.623 39.3244 200.931 39.8252 201.974 40.7106C203.061 41.5507 203.792 42.6418 204.167 43.9839C204.167 43.9839 207.695 54.1455 207.615 56.6009ZM184.532 34.9909C184.936 35.031 185.722 35.0442 186.889 35.0305C190.346 34.9898 192.362 34.6744 192.939 34.0841C193.471 33.5392 193.726 32.2794 193.703 30.3048C193.681 28.4647 193.173 27.2139 192.177 26.5524C191.227 25.8903 189.652 25.5721 187.452 25.598C186.958 25.6038 185.949 25.6606 184.424 25.7683L184.532 34.9909Z" fill="#2C6BE5"/>
<path d="M234.98 53.1537L223.803 53.2851C223.803 53.2851 223.157 57.8515 221.882 61.7237C220.607 65.5959 209.493 61.8693 209.493 61.8693L221.431 23.3522C223.028 20.3582 228.387 19.9814 237.254 23.1662C237.254 23.1662 253.96 57.84 249.556 61.3983C245.151 64.9566 237.099 61.5448 237.099 61.5448L234.98 53.1537ZM229.07 31.5437L225.264 45.7946L233.277 45.7004L229.339 31.5406L229.07 31.5437Z" fill="#2C6BE5"/>
</g>
<path opacity="0.6" d="M19 60C23.767 63.7725 27.1231 63.3705 31.5525 60" stroke="#F38040" stroke-width="4" stroke-linecap="round"/>
<path opacity="0.6" d="M122.543 13.9525C117.71 9.26812 114.492 8.89616 110 13.4572" stroke="#F38040" stroke-width="4" stroke-linecap="round"/>
<path opacity="0.6" d="M246 67.2617C252.716 67.4286 254.544 65.3153 254.473 58" stroke="#F38040" stroke-width="4" stroke-linecap="round"/>
<path opacity="0.6" d="M209.742 27.6771C209.638 21.4285 207.623 18.8151 201 15.5402" stroke="#F38040" stroke-width="4" stroke-linecap="round"/>
<path opacity="0.6" d="M5.24158 13.906C1.17736 17.4372 0.870443 19.7696 5.0184 24.2576" stroke="#F38040" stroke-width="4" stroke-linecap="round"/>
</g>
<rect x="150.906" y="0.805023" width="15.195" height="15.195" rx="3" fill="#2C6BE5"/>
<rect x="150.5" y="0.5" width="14.195" height="14.195" rx="2.5" fill="#F38040" stroke="#2C6BE5"/>
<path d="M156.927 7.66186C156.927 7.42142 157.02 7.19083 157.184 7.02081C157.348 6.85079 157.57 6.75528 157.802 6.75528C158.034 6.75528 158.256 6.85079 158.42 7.02081C158.584 7.19083 158.676 7.42142 158.676 7.66186C158.676 7.90231 158.584 8.1329 158.42 8.30292C158.256 8.47293 158.034 8.56845 157.802 8.56845C157.57 8.56845 157.348 8.47293 157.184 8.30292C157.02 8.1329 156.927 7.90231 156.927 7.66186Z" fill="#2C6BE5"/>
<path fill-rule="evenodd" clip-rule="evenodd" d="M156.043 5.50301C156.043 5.33676 156.075 5.17213 156.136 5.01853C156.197 4.86494 156.287 4.72537 156.401 4.60782C156.63 4.3704 156.94 4.23701 157.264 4.23701H158.34C158.664 4.23701 158.974 4.3704 159.203 4.60782C159.432 4.84524 159.561 5.16725 159.561 5.50301C159.561 5.50589 159.562 5.50864 159.564 5.51078C159.565 5.51293 159.568 5.51431 159.571 5.51469L160.437 5.58722C160.825 5.62026 161.145 5.91762 161.217 6.3145C161.402 7.32685 161.416 8.36478 161.258 9.38198L161.22 9.62535C161.185 9.84833 161.08 10.0528 160.92 10.2062C160.76 10.3595 160.555 10.4528 160.338 10.4711L159.583 10.5344C158.397 10.6342 157.206 10.6342 156.021 10.5344L155.266 10.4711C155.049 10.4528 154.844 10.3594 154.684 10.206C154.524 10.0526 154.418 9.848 154.384 9.62495L154.346 9.38198C154.188 8.36459 154.202 7.32706 154.387 6.3145C154.422 6.12151 154.517 5.94586 154.658 5.81455C154.799 5.68323 154.978 5.60351 155.166 5.58762L156.033 5.51469C156.036 5.51449 156.038 5.51315 156.04 5.51097C156.042 5.50879 156.043 5.50594 156.043 5.50301ZM157.802 6.15092C157.415 6.15092 157.045 6.31011 156.771 6.59347C156.498 6.87683 156.345 7.26115 156.345 7.66189C156.345 8.06262 156.498 8.44695 156.771 8.73031C157.045 9.01367 157.415 9.17286 157.802 9.17286C158.188 9.17286 158.559 9.01367 158.832 8.73031C159.106 8.44695 159.259 8.06262 159.259 7.66189C159.259 7.26115 159.106 6.87683 158.832 6.59347C158.559 6.31011 158.188 6.15092 157.802 6.15092Z" fill="#2C6BE5"/>
<defs>
<filter id="filter0_d_218_56" x="0.0471191" y="8.23006" width="260.428" height="65.0408" filterUnits="userSpaceOnUse" color-interpolation-filters="sRGB">
<feFlood flood-opacity="0" result="BackgroundImageFix"/>
<feColorMatrix in="SourceAlpha" type="matrix" values="0 0 0 0 0 0 0 0 0 0 0 0 0 0 0 0 0 0 127 0" result="hardAlpha"/>
<feOffset dx="2" dy="2"/>
<feGaussianBlur stdDeviation="1"/>
<feComposite in2="hardAlpha" operator="out"/>
<feColorMatrix type="matrix" values="0 0 0 0 0.952941 0 0 0 0 0.501961 0 0 0 0 0.25098 0 0 0 0.15 0"/>
<feBlend mode="normal" in2="BackgroundImageFix" result="effect1_dropShadow_218_56"/>
<feBlend mode="normal" in="SourceGraphic" in2="effect1_dropShadow_218_56" result="shape"/>
</filter>
<filter id="filter1_i_218_56" x="6.37659" y="14.4366" width="245.919" height="51.1194" filterUnits="userSpaceOnUse" color-interpolation-filters="sRGB">
<feFlood flood-opacity="0" result="BackgroundImageFix"/>
<feBlend mode="normal" in="SourceGraphic" in2="BackgroundImageFix" result="shape"/>
<feColorMatrix in="SourceAlpha" type="matrix" values="0 0 0 0 0 0 0 0 0 0 0 0 0 0 0 0 0 0 127 0" result="hardAlpha"/>
<feOffset dx="2" dy="2"/>
<feGaussianBlur stdDeviation="1"/>
<feComposite in2="hardAlpha" operator="arithmetic" k2="-1" k3="1"/>
<feColorMatrix type="matrix" values="0 0 0 0 0.952941 0 0 0 0 0.501961 0 0 0 0 0.25098 0 0 0 0.15 0"/>
<feBlend mode="normal" in2="shape" result="effect1_innerShadow_218_56"/>
</filter>
</defs>
</svg>
