<svg width="57" height="46" viewBox="0 0 57 46" fill="none" xmlns="http://www.w3.org/2000/svg">
<path d="M56.9999 5.53016C54.9229 6.45099 52.6917 7.07066 50.3499 7.35016C52.7416 5.92016 54.5756 3.656 55.4394 0.956329C53.2039 2.28016 50.7254 3.24216 48.0862 3.76216C45.9744 1.51533 42.9663 0.111328 39.6369 0.111328C33.243 0.111328 28.0602 5.2875 28.0602 11.6683C28.0602 12.574 28.1644 13.458 28.3597 14.3008C18.7385 13.8198 10.2089 9.21783 4.49649 2.22383C3.50246 3.93116 2.93165 5.91583 2.93165 8.03699C2.93165 12.0453 4.97397 15.5835 8.07977 17.6548C6.18286 17.5942 4.39665 17.0742 2.83615 16.2097C2.83615 16.2595 2.83615 16.305 2.83615 16.3548C2.83615 21.9557 6.82529 26.627 12.1232 27.6865C11.153 27.9508 10.1286 28.0917 9.07162 28.0917C8.32719 28.0917 7.60011 28.018 6.89474 27.8858C8.36843 32.477 12.6441 35.8202 17.7097 35.9133C13.7488 39.0138 8.75692 40.862 3.331 40.862C2.39774 40.862 1.47533 40.8078 0.568115 40.6995C5.69236 43.9777 11.7759 45.8908 18.3152 45.8908C39.6109 45.8908 51.2528 28.2802 51.2528 13.0073C51.2528 12.5068 51.2419 12.0085 51.2202 11.5123C53.4839 9.88083 55.4481 7.84633 56.9999 5.53016Z" fill="#2C6BE5"/>
</svg>
